{
  "accessors": [
    {
      "bufferView": 2,
      "componentType": 5126,
      "count": 62947,
      "max": [
        0.052480947226285934,
        0.12147808074951172,
        0.020000003278255463
      ],
      "min": [
        -0.052480943500995636,
        0.001016138237901032,
        -0.020000003278255463
      ],
      "type": "VEC3"
    },
    {
      "bufferView": 2,
      "byteOffset": 755364,
      "componentType": 5126,
      "count": 62947,
      "max": [
        1.0,
        1.0,
        1.0
      ],
      "min": [
        -1.0,
        -1.0,
        -1.0
      ],
      "type": "VEC3"
    },
    {
      "bufferView": 1,
      "componentType": 5126,
      "count": 62947,
      "max": [
        0.9999999403953552,
        0.9996835589408875
      ],
      "min": [
        0.0,
        0.0
      ],
      "type": "VEC2"
    },
    {
      "bufferView": 0,
      "componentType": 5125,
      "count": 300864,
      "type": "SCALAR"
    },
    {
      "bufferView": 2,
      "byteOffset": 1510728,
      "componentType": 5126,
      "count": 30190,
      "max": [
        0.018410000950098038,
        0.126407653093338,
        0.008592844940721989
      ],
      "min": [
        0.0012243124656379223,
        0.004986967891454697,
        -0.008592844940721989
      ],
      "type": "VEC3"
    },
    {
      "bufferView": 2,
      "byteOffset": 1873008,
      "componentType": 5126,
      "count": 30190,
      "max": [
        1.0,
        1.0,
        1.0
      ],
      "min": [
        -1.0,
        -1.0,
        -1.0
      ],
      "type": "VEC3"
    },
    {
      "bufferView": 1,
      "byteOffset": 503576,
      "componentType": 5126,
      "count": 30190,
      "max": [
        0.9999998807907104,
        0.7686429619789124
      ],
      "min": [
        0.0,
        0.0
      ],
      "type": "VEC2"
    },
    {
      "bufferView": 0,
      "byteOffset": 1203456,
      "componentType": 5125,
      "count": 158976,
      "type": "SCALAR"
    },
    {
      "bufferView": 2,
      "byteOffset": 2235288,
      "componentType": 5126,
      "count": 30059,
      "max": [
        -0.0012243197998031974,
        0.126407653093338,
        0.008592844940721989
      ],
      "min": [
        -0.018410012125968933,
        0.004986967891454697,
        -0.008592844940721989
      ],
      "type": "VEC3"
    },
    {
      "bufferView": 2,
      "byteOffset": 2595996,
      "componentType": 5126,
      "count": 30059,
      "max": [
        1.0,
        1.0,
        1.0
      ],
      "min": [
        -1.0,
        -1.0,
        -1.0
      ],
      "type": "VEC3"
    },
    {
      "bufferView": 1,
      "byteOffset": 745096,
      "componentType": 5126,
      "count": 30059,
      "max": [
        0.9999998807907104,
        0.7686429619789124
      ],
      "min": [
        0.0,
        0.0
      ],
      "type": "VEC2"
    },
    {
      "bufferView": 0,
      "byteOffset": 1839360,
      "componentType": 5125,
      "count": 158976,
      "type": "SCALAR"
    },
    {
      "bufferView": 2,
      "byteOffset": 2956704,
      "componentType": 5126,
      "count": 29920,
      "max": [
        0.03804431110620499,
        0.126407653093338,
        0.008592844940721989
      ],
      "min": [
        0.02085861936211586,
        0.004986967891454697,
        -0.008592844940721989
      ],
      "type": "VEC3"
    },
    {
      "bufferView": 2,
      "byteOffset": 3315744,
      "componentType": 5126,
      "count": 29920,
      "max": [
        1.0,
        1.0,
        1.0
      ],
      "min": [
        -1.0,
        -1.0,
        -1.0
      ],
      "type": "VEC3"
    },
    {
      "bufferView": 1,
      "byteOffset": 985568,
      "componentType": 5126,
      "count": 29920,
      "max": [
        0.9999998807907104,
        0.7686429619789124
      ],
      "min": [
        0.0,
        0.0
      ],
      "type": "VEC2"
    },
    {
      "bufferView": 0,
      "byteOffset": 2475264,
      "componentType": 5125,
      "count": 158976,
      "type": "SCALAR"
    },
    {
      "bufferView": 2,
      "byteOffset": 3674784,
      "componentType": 5126,
      "count": 29938,
      "max": [
        -0.020858628675341606,
        0.126407653093338,
        0.008592844940721989
      ],
      "min": [
        -0.038044318556785583,
        0.004986967891454697,
        -0.008592844940721989
      ],
      "type": "VEC3"
    },
    {
      "bufferView": 2,
      "byteOffset": 4034040,
      "componentType": 5126,
      "count": 29938,
      "max": [
        1.0,
        1.0,
        1.0
      ],
      "min": [
        -1.0,
        -1.0,
        -1.0
      ],
      "type": "VEC3"
    },
    {
      "bufferView": 1,
      "byteOffset": 1224928,
      "componentType": 5126,
      "count": 29938,
      "max": [
        0.9999998807907104,
        0.7686429619789124
      ],
      "min": [
        0.0,
        0.0
      ],
      "type": "VEC2"
    },
    {
      "bufferView": 0,
      "byteOffset": 3111168,
      "componentType": 5125,
      "count": 158976,
      "type": "SCALAR"
    },
    {
      "bufferView": 2,
      "byteOffset": 4393296,
      "componentType": 5126,
      "count": 7430,
      "max": [
        0.04099338874220848,
        0.0020093098282814026,
        0.020249905064702034
      ],
      "min": [
        -0.04099339246749878,
        2.254929677292239e-05,
        -0.020249905064702034
      ],
      "type": "VEC3"
    },
    {
      "bufferView": 2,
      "byteOffset": 4482456,
      "componentType": 5126,
      "count": 7430,
      "max": [
        1.0,
        1.0,
        1.0
      ],
      "min": [
        -1.0,
        -1.0,
        -1.0
      ],
      "type": "VEC3"
    },
    {
      "bufferView": 1,
      "byteOffset": 1464432,
      "componentType": 5126,
      "count": 7430,
      "max": [
        1.0000001192092896,
        1.0000001192092896
      ],
      "min": [
        0.0,
        0.010011982172727585
      ],
      "type": "VEC2"
    },
    {
      "bufferView": 0,
      "byteOffset": 3747072,
      "componentType": 5125,
      "count": 33792,
      "type": "SCALAR"
    },
    {
      "bufferView": 2,
      "byteOffset": 4571616,
      "componentType": 5126,
      "count": 50780,
      "max": [
        0.041008029133081436,
        0.038508545607328415,
        0.01999366283416748
      ],
      "min": [
        -0.041008029133081436,
        0.0010222350247204304,
        -0.01999366283416748
      ],
      "type": "VEC3"
    },
    {
      "bufferView": 2,
      "byteOffset": 5180976,
      "componentType": 5126,
      "count": 50780,
      "max": [
        0.9996984601020813,
        0.3039103150367737,
        0.9996976256370544
      ],
      "min": [
        -0.99969881772995,
        -1.0,
        -0.9996976256370544
      ],
      "type": "VEC3"
    },
    {
      "bufferView": 1,
      "byteOffset": 1523872,
      "componentType": 5126,
      "count": 50780,
      "max": [
        1.0000001192092896,
        0.996913731098175
      ],
      "min": [
        0.0,
        0.5030864477157593
      ],
      "type": "VEC2"
    },
    {
      "bufferView": 0,
      "byteOffset": 3882240,
      "componentType": 5125,
      "count": 84000,
      "type": "SCALAR"
    }
  ],
  "asset": {
    "extras": {
      "author": "Yanislav Lukov (https://sketchfab.com/qnislav399)",
      "license": "CC-BY-4.0 (http://creativecommons.org/licenses/by/4.0/)",
      "source": "https://sketchfab.com/3d-models/metalic-pen-stand-set-b50fb78f976546dc96c6a9fff476aba2",
      "title": "Metalic Pen Stand Set"
    },
    "generator": "Sketchfab-15.0.0",
    "version": "2.0"
  },
  "bufferViews": [
    {
      "buffer": 0,
      "byteLength": 4218240,
      "name": "floatBufferViews",
      "target": 34963
    },
    {
      "buffer": 0,
      "byteLength": 1930112,
      "byteOffset": 4218240,
      "byteStride": 8,
      "name": "floatBufferViews",
      "target": 34962
    },
    {
      "buffer": 0,
      "byteLength": 5790336,
      "byteOffset": 6148352,
      "byteStride": 12,
      "name": "floatBufferViews",
      "target": 34962
    }
  ],
  "buffers": [
    {
      "byteLength": 11938688,
      "uri": "scene.bin"
    }
  ],
  "materials": [
    {
      "doubleSided": true,
      "name": "material_0",
      "pbrMetallicRoughness": {
        "metallicFactor": 0.0,
        "roughnessFactor": 0.6
      }
    },
    {
      "doubleSided": true,
      "name": "Gray_Metal",
      "pbrMetallicRoughness": {
        "roughnessFactor": 0.4
      }
    },
    {
      "doubleSided": true,
      "name": "material",
      "pbrMetallicRoughness": {
        "baseColorFactor": [
          0.7,
          0.0,
          0.0,
          1.0
        ],
        "metallicFactor": 0.0,
        "roughnessFactor": 0.2
      }
    },
    {
      "doubleSided": true,
      "name": "Green",
      "pbrMetallicRoughness": {
        "baseColorFactor": [
          0.0140553,
          0.0711919,
          0.0197706,
          1.0
        ],
        "metallicFactor": 0.0,
        "roughnessFactor": 0.2
      }
    },
    {
      "doubleSided": true,
      "name": "Blue",
      "pbrMetallicRoughness": {
        "baseColorFactor": [
          0.0,
          2.39121e-08,
          0.0501473,
          1.0
        ],
        "metallicFactor": 0.0,
        "roughnessFactor": 0.2
      }
    },
    {
      "doubleSided": true,
      "name": "Black",
      "pbrMetallicRoughness": {
        "baseColorFactor": [
          0.00175602,
          0.00343412,
          0.00199008,
          1.0
        ],
        "metallicFactor": 0.0,
        "roughnessFactor": 0.2
      }
    },
    {
      "doubleSided": true,
      "name": "Black_Rubber",
      "pbrMetallicRoughness": {
        "baseColorFactor": [
          0.00291949,
          0.00291949,
          0.00291949,
          1.0
        ],
        "metallicFactor": 0.0,
        "roughnessFactor": 0.9
      }
    }
  ],
  "meshes": [
    {
      "name": "Object_0",
      "primitives": [
        {
          "attributes": {
            "NORMAL": 1,
            "POSITION": 0,
            "TEXCOORD_0": 2
          },
          "indices": 3,
          "material": 1,
          "mode": 4
        }
      ]
    },
    {
      "name": "Object_1",
      "primitives": [
        {
          "attributes": {
            "NORMAL": 5,
            "POSITION": 4,
            "TEXCOORD_0": 6
          },
          "indices": 7,
          "material": 2,
          "mode": 4
        }
      ]
    },
    {
      "name": "Object_2",
      "primitives": [
        {
          "attributes": {
            "NORMAL": 9,
            "POSITION": 8,
            "TEXCOORD_0": 10
          },
          "indices": 11,
          "material": 3,
          "mode": 4
        }
      ]
    },
    {
      "name": "Object_3",
      "primitives": [
        {
          "attributes": {
            "NORMAL": 13,
            "POSITION": 12,
            "TEXCOORD_0": 14
          },
          "indices": 15,
          "material": 4,
          "mode": 4
        }
      ]
    },
    {
      "name": "Object_4",
      "primitives": [
        {
          "attributes": {
            "NORMAL": 17,
            "POSITION": 16,
            "TEXCOORD_0": 18
          },
          "indices": 19,
          "material": 5,
          "mode": 4
        }
      ]
    },
    {
      "name": "Object_5",
      "primitives": [
        {
          "attributes": {
            "NORMAL": 21,
            "POSITION": 20,
            "TEXCOORD_0": 22
          },
          "indices": 23,
          "material": 6,
          "mode": 4
        }
      ]
    },
    {
      "name": "Object_6",
      "primitives": [
        {
          "attributes": {
            "NORMAL": 25,
            "POSITION": 24,
            "TEXCOORD_0": 26
          },
          "indices": 27,
          "material": 0,
          "mode": 4
        }
      ]
    }
  ],
  "nodes": [
    {
      "children": [
        1
      ],
      "matrix": [
        1.0,
        0.0,
        0.0,
        0.0,
        0.0,
        2.220446049250313e-16,
        -1.0,
        0.0,
        0.0,
        1.0,
        2.220446049250313e-16,
        0.0,
        0.0,
        0.0,
        0.0,
        1.0
      ],
      "name": "Sketchfab_model"
    },
    {
      "children": [
        2
      ],
      "name": "root"
    },
    {
      "children": [
        3
      ],
      "matrix": [
        1.0,
        0.0,
        0.0,
        0.0,
        0.0,
        2.220446049250313e-16,
        1.0,
        0.0,
        0.0,
        -1.0,
        2.220446049250313e-16,
        0.0,
        0.0,
        0.0,
        0.0,
        1.0
      ],
      "name": "GLTF_SceneRootNode"
    },
    {
      "children": [
        4,
        5,
        6,
        7,
        8,
        9,
        10
      ],
      "name": "Pen Holder Set_0"
    },
    {
      "mesh": 0,
      "name": "Object_4"
    },
    {
      "mesh": 1,
      "name": "Object_5"
    },
    {
      "mesh": 2,
      "name": "Object_6"
    },
    {
      "mesh": 3,
      "name": "Object_7"
    },
    {
      "mesh": 4,
      "name": "Object_8"
    },
    {
      "mesh": 5,
      "name": "Object_9"
    },
    {
      "mesh": 6,
      "name": "Object_10"
    }
  ],
  "scene": 0,
  "scenes": [
    {
      "name": "Sketchfab_Scene",
      "nodes": [
        0
      ]
    }
  ]
}
